<svg xmlns="http://www.w3.org/2000/svg" viewBox="0 0 240 240">
  <defs>
    <linearGradient id="g" x1="0" y1="0" x2="1" y2="1">
      <stop offset="0%" stop-color="#8b5e34" />
      <stop offset="100%" stop-color="#4b2e1e" />
    </linearGradient>
  </defs>
  <rect width="240" height="240" rx="40" fill="#2b1f12" />
  <circle cx="120" cy="120" r="98" fill="url(#g)" />
  <path d="M80 100c0-22 18-40 40-40s40 18 40 40c0 22-18 30-40 56-22-26-40-34-40-56z" fill="#f3e0c2" />
  <path d="M120 60c-30 0-50 24-50 50 0 28 22 38 50 66 28-28 50-38 50-66 0-26-20-50-50-50z" fill="#eed7b5" opacity="0.85" />
  <circle cx="108" cy="100" r="6" fill="#2b1f12" />
  <circle cx="132" cy="100" r="6" fill="#2b1f12" />
  <path d="M110 124c8 8 14 8 22 0" stroke="#2b1f12" stroke-width="6" stroke-linecap="round" fill="none" />
  <text x="120" y="170" text-anchor="middle" font-family="Georgia, serif" font-size="28" fill="#f5e7d3" letter-spacing="2">MC</text>
</svg>